# Blender v3.1.2 OBJ File: ''
# www.blender.org
mtllib writing_bookbinding_table.mtl
o node_0_0_0
v -0.500000 0.187500 -0.500000
v -0.500000 0.187500 -0.437500
v 0.500000 0.187500 -0.437500
v 0.500000 0.187500 -0.500000
v 0.312500 0.187500 -0.437500
v 0.312500 0.187500 -0.375000
v 0.500000 0.187500 -0.375000
v -0.500000 0.187500 -0.375000
v 0.250000 0.187500 -0.375000
v 0.250000 0.187500 -0.437500
v 0.250000 0.250000 -0.437500
v 0.250000 0.250000 -0.375000
v 0.312500 0.250000 -0.375000
v 0.312500 0.250000 -0.437500
v 0.375000 0.187500 -0.375000
v 0.375000 0.187500 0.375000
v 0.500000 0.187500 0.375000
v 0.250000 0.187500 -0.250000
v 0.312500 0.187500 -0.250000
v 0.312500 0.250000 -0.250000
v 0.375000 0.250000 -0.250000
v 0.375000 0.250000 -0.375000
v 0.187500 0.250000 -0.375000
v 0.187500 0.250000 -0.250000
v 0.250000 0.250000 -0.250000
v -0.500000 0.250000 -0.375000
v -0.500000 0.250000 -0.312500
v 0.187500 0.250000 -0.312500
v 0.187500 0.062500 -0.312500
v 0.187500 0.062500 -0.250000
v 0.500000 0.062500 -0.250000
v 0.500000 0.062500 -0.312500
v 0.125000 0.250000 -0.312500
v 0.125000 0.250000 0.312500
v 0.187500 0.250000 0.312500
v -0.187500 0.250000 -0.312500
v -0.187500 0.250000 0.312500
v -0.125000 0.250000 0.312500
v -0.125000 0.250000 -0.312500
v -0.500000 0.250000 0.312500
v -0.437500 0.250000 0.312500
v -0.437500 0.250000 -0.312500
v -0.125000 0.312500 -0.312500
v -0.125000 0.312500 0.250000
v 0.125000 0.312500 0.250000
v 0.125000 0.312500 -0.312500
v -0.437500 0.312500 -0.312500
v -0.437500 0.312500 0.250000
v -0.187500 0.312500 0.250000
v -0.187500 0.312500 -0.312500
v 0.437500 0.062500 -0.250000
v 0.437500 0.062500 -0.125000
v 0.500000 0.062500 -0.125000
v 0.187500 0.062500 -0.187500
v 0.437500 0.062500 -0.187500
v 0.312500 0.187500 0.375000
v 0.375000 0.187500 -0.250000
v 0.187500 0.187500 -0.250000
v 0.187500 0.187500 0.500000
v 0.250000 0.187500 0.500000
v 0.250000 0.250000 0.187500
v 0.312500 0.250000 0.187500
v 0.187500 0.062500 -0.125000
v 0.187500 0.062500 -0.062500
v 0.500000 0.062500 -0.062500
v 0.250000 0.062500 -0.062500
v 0.250000 0.062500 0.000000
v 0.500000 0.062500 0.000000
v 0.187500 0.062500 0.062500
v 0.250000 0.062500 0.062500
v 0.500000 0.062500 0.062500
v 0.187500 -0.125000 0.062500
v 0.187500 -0.125000 0.187500
v 0.500000 -0.125000 0.187500
v 0.500000 -0.125000 0.062500
v 0.187500 -0.187500 0.187500
v 0.187500 -0.187500 0.250000
v 0.500000 -0.187500 0.250000
v 0.500000 -0.187500 0.187500
v 0.250000 0.187500 0.187500
v 0.312500 0.187500 0.500000
v 0.312500 0.187500 0.187500
v 0.187500 -0.250000 0.250000
v 0.187500 -0.250000 0.312500
v 0.500000 -0.250000 0.312500
v 0.500000 -0.250000 0.250000
v -0.125000 0.250000 0.250000
v 0.125000 0.250000 0.250000
v -0.437500 0.250000 0.250000
v -0.187500 0.250000 0.250000
v 0.187500 -0.312500 0.312500
v 0.187500 -0.312500 0.375000
v 0.500000 -0.312500 0.375000
v 0.500000 -0.312500 0.312500
v -0.500000 0.187500 0.312500
v -0.500000 0.187500 0.500000
v 0.187500 0.187500 0.312500
v 0.187500 -0.375000 0.375000
v 0.187500 -0.375000 0.437500
v 0.500000 -0.375000 0.437500
v 0.500000 -0.375000 0.375000
v 0.437500 0.187500 0.375000
v 0.437500 0.187500 0.500000
v 0.500000 0.187500 0.500000
v 0.312500 0.500000 0.375000
v 0.312500 0.500000 0.500000
v 0.437500 0.500000 0.500000
v 0.437500 0.500000 0.375000
v 0.187500 -0.437500 0.437500
v 0.187500 -0.437500 0.500000
v 0.375000 -0.437500 0.500000
v 0.375000 -0.437500 0.437500
v 0.500000 -0.500000 -0.500000
v 0.500000 -0.500000 -0.375000
v 0.375000 -0.500000 -0.375000
v 0.375000 -0.500000 -0.500000
v -0.437500 -0.500000 -0.500000
v -0.437500 -0.500000 -0.375000
v -0.500000 -0.500000 -0.375000
v -0.500000 -0.500000 -0.500000
v 0.375000 0.125000 -0.500000
v 0.375000 0.125000 0.500000
v -0.437500 0.125000 0.500000
v -0.437500 0.125000 -0.500000
v 0.500000 0.125000 -0.375000
v 0.500000 0.125000 0.437500
v 0.375000 0.125000 0.437500
v 0.375000 0.125000 -0.375000
v -0.437500 0.125000 -0.375000
v -0.437500 0.125000 0.437500
v -0.500000 0.125000 0.437500
v -0.500000 0.125000 -0.375000
v 0.500000 -0.500000 -0.312500
v 0.500000 -0.500000 0.062500
v 0.187500 -0.500000 0.062500
v 0.187500 -0.500000 -0.312500
v 0.500000 -0.250000 0.062500
v 0.500000 -0.250000 0.125000
v 0.187500 -0.250000 0.125000
v 0.187500 -0.250000 0.062500
v 0.500000 -0.312500 0.125000
v 0.500000 -0.312500 0.187500
v 0.187500 -0.312500 0.187500
v 0.187500 -0.312500 0.125000
v 0.500000 -0.375000 0.187500
v 0.500000 -0.375000 0.250000
v 0.187500 -0.375000 0.250000
v 0.187500 -0.375000 0.187500
v 0.500000 -0.437500 0.250000
v 0.500000 -0.437500 0.312500
v 0.187500 -0.437500 0.312500
v 0.187500 -0.437500 0.250000
v 0.500000 -0.500000 0.312500
v 0.500000 -0.500000 0.375000
v 0.187500 -0.500000 0.375000
v 0.187500 -0.500000 0.312500
v 0.500000 -0.500000 0.437500
v 0.437500 -0.500000 0.437500
v 0.437500 -0.500000 0.375000
v 0.187500 -0.500000 0.437500
v 0.500000 -0.500000 0.500000
v 0.375000 -0.500000 0.500000
v 0.375000 -0.500000 0.437500
v 0.187500 -0.500000 0.500000
v -0.437500 -0.500000 0.437500
v -0.437500 -0.500000 0.500000
v -0.500000 -0.500000 0.500000
v -0.500000 -0.500000 0.437500
v -0.500000 0.125000 0.500000
v 0.187500 -0.437500 0.062500
v 0.187500 -0.437500 -0.312500
v 0.187500 -0.375000 0.062500
v 0.187500 -0.375000 -0.312500
v 0.187500 -0.312500 0.062500
v 0.187500 -0.312500 -0.312500
v 0.187500 -0.312500 -0.250000
v 0.187500 -0.312500 -0.187500
v 0.187500 -0.312500 -0.125000
v 0.187500 -0.125000 0.125000
v 0.187500 -0.250000 0.187500
v 0.187500 -0.187500 0.125000
v 0.187500 -0.312500 0.250000
v 0.187500 -0.375000 0.312500
v 0.187500 -0.437500 0.375000
v 0.312500 0.250000 0.500000
v 0.312500 0.250000 0.375000
v 0.500000 0.125000 0.500000
v 0.500000 -0.312500 -0.312500
v 0.500000 -0.312500 0.062500
v 0.500000 -0.312500 -0.125000
v 0.500000 -0.312500 -0.062500
v 0.500000 -0.312500 -0.000000
v 0.500000 -0.250000 0.187500
v 0.500000 -0.437500 0.437500
v 0.437500 0.250000 0.375000
v 0.437500 0.250000 0.500000
v 0.375000 0.187500 -0.500000
v -0.437500 0.187500 -0.500000
v 0.187500 0.187500 -0.375000
v 0.500000 -0.437500 -0.312500
v 0.437500 -0.437500 -0.312500
v 0.437500 -0.312500 -0.312500
v 0.437500 -0.375000 -0.312500
v 0.375000 -0.375000 0.437500
v 0.500000 -0.437500 0.062500
v 0.437500 -0.312500 0.062500
v 0.437500 -0.437500 0.062500
v 0.437500 -0.375000 0.062500
v 0.375000 0.187500 0.500000
v -0.437500 0.187500 0.500000
vt 0.000000 0.000000
vt 0.000000 0.062500
vt 1.000000 0.062500
vt 1.000000 0.000000
vt 0.812500 0.062500
vt 0.812500 0.125000
vt 1.000000 0.125000
vt 0.000000 0.125000
vt 0.750000 0.125000
vt 0.750000 0.062500
vt 0.875000 0.125000
vt 0.875000 0.875000
vt 1.000000 0.875000
vt 0.750000 0.250000
vt 0.812500 0.250000
vt 0.812500 0.875000
vt 0.875000 0.250000
vt 0.687500 0.250000
vt 0.687500 1.000000
vt 0.750000 1.000000
vt 0.750000 0.687500
vt 0.812500 1.000000
vt 0.812500 0.687500
vt 0.000000 0.812500
vt 0.000000 1.000000
vt 0.687500 0.812500
vt 0.937500 0.875000
vt 0.937500 1.000000
vt 1.000000 1.000000
vt 1.000000 0.000000
vt 1.000000 0.125000
vt 0.875000 0.125000
vt 0.875000 0.000000
vt 0.062500 0.000000
vt 0.062500 0.125000
vt 0.000000 0.125000
vt 0.000000 0.000000
vt 0.875000 0.000000
vt 0.875000 1.000000
vt 0.062500 1.000000
vt 0.062500 0.000000
vt 1.000000 0.125000
vt 1.000000 0.937500
vt 0.875000 0.937500
vt 0.875000 0.125000
vt 0.062500 0.125000
vt 0.062500 0.937500
vt 0.000000 0.937500
vt 0.000000 0.125000
vt 1.000000 0.937500
vt 1.000000 1.000000
vt 0.875000 1.000000
vt 0.875000 0.937500
vt 0.062500 0.937500
vt 0.062500 1.000000
vt 0.000000 1.000000
vt 0.000000 0.937500
vt 0.000000 0.000000
vt 0.000000 0.125000
vt 0.625000 0.125000
vt 0.625000 0.000000
vt 0.687500 0.125000
vt 0.687500 0.000000
vt 0.625000 0.125000
vt 0.625000 1.000000
vt 0.687500 1.000000
vt 0.625000 0.937500
vt 0.062500 0.937500
vt 0.062500 1.000000
vt 0.625000 1.000000
vt 0.625000 0.937500
vt 0.687500 0.000000
vt 0.687500 0.125000
vt 0.000000 0.125000
vt 0.000000 0.000000
vt 0.625000 0.000000
vt 0.625000 0.125000
vt 0.000000 0.125000
vt 0.000000 0.000000
vt 0.687500 1.000000
vt 0.625000 1.000000
vt 0.625000 0.125000
vt 0.625000 0.937500
vt 0.000000 1.000000
vt 0.000000 0.937500
vt 0.625000 0.937500
vt 0.625000 1.000000
vt 0.000000 1.000000
vt 0.000000 0.937500
vt 0.875000 0.687500
vt 1.000000 0.687500
vt 0.000000 0.687500
vt 0.062500 0.687500
vt 0.062500 0.625000
vt 0.875000 0.625000
vt 0.000000 0.000000
vt 0.000000 0.625000
vt 0.062500 0.625000
vt 0.062500 0.000000
vt 0.875000 0.125000
vt 0.875000 0.625000
vt 1.000000 0.625000
vt 1.000000 0.125000
vt 1.000000 0.000000
vt 1.000000 0.625000
vt 0.875000 0.625000
vt 0.875000 0.000000
vt 0.062500 0.000000
vt 0.062500 0.625000
vt 0.000000 0.625000
vt 0.000000 0.000000
vt 1.000000 0.000000
vt 1.000000 0.687500
vt 0.875000 0.687500
vt 0.875000 0.000000
vt 0.062500 0.000000
vt 0.062500 0.687500
vt 0.000000 0.687500
vt 0.000000 0.000000
vt 0.875000 0.625000
vt 0.062500 0.625000
vt 0.750000 0.062500
vt 0.750000 0.125000
vt 0.812500 0.125000
vt 0.812500 0.062500
vt 0.812500 0.250000
vt 0.875000 0.250000
vt 0.875000 0.125000
vt 0.687500 0.125000
vt 0.687500 0.250000
vt 0.750000 0.250000
vt 0.750000 0.687500
vt 0.812500 0.687500
vt 0.687500 0.062500
vt 0.687500 0.125000
vt 0.687500 0.125000
vt 0.687500 0.250000
vt 0.750000 0.250000
vt 0.750000 0.125000
vt 0.687500 0.250000
vt 0.687500 0.687500
vt 0.750000 0.062500
vt 0.687500 0.062500
vt 0.750000 0.125000
vt 0.750000 0.250000
vt 0.687500 0.250000
vt 0.687500 0.125000
vt 0.750000 0.687500
vt 0.687500 0.687500
vt 0.750000 0.687500
vt 0.750000 0.750000
vt 0.812500 0.750000
vt 0.812500 0.687500
vt 0.812500 0.687500
vt 0.812500 0.750000
vt 0.875000 0.750000
vt 0.875000 0.687500
vt 0.687500 0.687500
vt 0.687500 0.750000
vt 0.750000 0.750000
vt 0.750000 0.687500
vt 0.750000 0.687500
vt 0.750000 0.750000
vt 0.812500 0.750000
vt 0.812500 0.687500
vt 0.875000 0.687500
vt 0.875000 0.750000
vt 0.687500 0.750000
vt 0.687500 0.687500
vt 0.812500 0.750000
vt 0.750000 0.750000
vt 0.000000 0.125000
vt 0.000000 0.187500
vt 0.687500 0.187500
vt 0.687500 0.187500
vt 0.687500 0.250000
vt 1.000000 0.250000
vt 1.000000 0.187500
vt 0.625000 0.187500
vt 0.625000 0.812500
vt 0.687500 0.812500
vt 0.312500 0.187500
vt 0.312500 0.812500
vt 0.375000 0.812500
vt 0.375000 0.187500
vt 0.000000 0.812500
vt 0.062500 0.812500
vt 0.062500 0.187500
vt 0.937500 0.250000
vt 0.937500 0.375000
vt 1.000000 0.375000
vt 0.687500 0.312500
vt 0.687500 0.375000
vt 0.937500 0.312500
vt 0.375000 0.750000
vt 0.625000 0.750000
vt 0.062500 0.750000
vt 0.312500 0.750000
vt 0.687500 0.812500
vt 0.750000 0.812500
vt 0.750000 0.125000
vt 0.187500 0.187500
vt 0.187500 0.250000
vt 0.562500 0.250000
vt 0.562500 0.187500
vt 0.187500 0.312500
vt 0.187500 0.375000
vt 0.562500 0.375000
vt 0.562500 0.312500
vt 0.562500 0.187500
vt 0.562500 0.375000
vt 0.187500 0.375000
vt 0.187500 0.187500
vt 0.750000 0.250000
vt 0.750000 0.812500
vt 0.000000 0.687500
vt 0.000000 0.750000
vt 0.687500 0.187500
vt 0.687500 0.562500
vt 1.000000 0.562500
vt 1.000000 0.187500
vt 0.687500 0.687500
vt 0.687500 0.750000
vt 0.000000 0.750000
vt 0.000000 0.687500
vt 0.375000 0.187500
vt 0.375000 0.750000
vt 0.625000 0.750000
vt 0.625000 0.187500
vt 0.062500 0.187500
vt 0.062500 0.750000
vt 0.312500 0.750000
vt 0.312500 0.187500
vt 0.750000 0.187500
vt 0.750000 0.750000
vt 0.812500 0.750000
vt 0.812500 0.187500
vt 0.750000 0.187500
vt 0.750000 0.750000
vt 0.812500 0.750000
vt 0.812500 0.187500
vt 0.812500 0.187500
vt 0.812500 0.750000
vt 0.750000 0.750000
vt 0.750000 0.187500
vt 0.812500 0.187500
vt 0.812500 0.750000
vt 0.750000 0.750000
vt 0.750000 0.187500
vt 0.375000 0.750000
vt 0.375000 0.812500
vt 0.625000 0.812500
vt 0.625000 0.750000
vt 0.062500 0.750000
vt 0.062500 0.812500
vt 0.312500 0.812500
vt 0.312500 0.750000
vt 0.625000 0.812500
vt 0.375000 0.812500
vt 0.312500 0.812500
vt 0.062500 0.812500
vt 0.750000 0.437500
vt 0.750000 0.500000
vt 1.000000 0.500000
vt 1.000000 0.437500
vt 0.937500 0.875000
vt 0.937500 0.937500
vt 0.687500 0.937500
vt 0.687500 0.875000
vt 0.062500 0.187500
vt 0.062500 0.562500
vt 0.125000 0.562500
vt 0.125000 0.187500
vt 0.250000 0.625000
vt 0.250000 0.687500
vt 0.312500 0.687500
vt 0.312500 0.625000
vt 0.187500 0.687500
vt 0.187500 0.750000
vt 0.250000 0.750000
vt 0.125000 0.750000
vt 0.125000 0.812500
vt 0.187500 0.812500
vt 0.062500 0.812500
vt 0.062500 0.875000
vt 0.125000 0.875000
vt 0.000000 0.875000
vt 0.000000 0.937500
vt 0.062500 0.937500
vt 0.562500 0.437500
vt 0.562500 0.500000
vt 0.187500 0.500000
vt 0.187500 0.437500
vt 0.687500 0.062500
vt 0.687500 0.125000
vt 0.937500 0.125000
vt 0.937500 0.062500
vt 0.937500 0.062500
vt 0.937500 0.125000
vt 0.687500 0.125000
vt 0.687500 0.062500
vt 0.687500 0.437500
vt 0.687500 0.562500
vt 0.750000 0.562500
vt 1.000000 0.562500
vt 0.187500 0.562500
vt 0.562500 0.562500
vt 0.562500 0.562500
vt 0.187500 0.562500
vt 1.000000 0.187500
vt 1.000000 0.250000
vt 0.687500 0.250000
vt 0.687500 0.187500
vt 1.000000 0.375000
vt 0.687500 0.375000
vt 0.687500 0.562500
vt 0.687500 0.687500
vt 1.000000 0.687500
vt 1.000000 0.562500
vt 0.687500 0.687500
vt 0.687500 0.750000
vt 1.000000 0.750000
vt 1.000000 0.687500
vt 0.687500 0.750000
vt 0.687500 0.812500
vt 1.000000 0.812500
vt 1.000000 0.750000
vt 0.687500 0.812500
vt 0.687500 0.875000
vt 1.000000 0.875000
vt 1.000000 0.812500
vt 0.687500 0.875000
vt 0.687500 0.937500
vt 1.000000 0.937500
vt 1.000000 0.875000
vt 0.687500 0.937500
vt 0.687500 1.000000
vt 0.875000 1.000000
vt 0.875000 0.937500
vt 1.000000 0.562500
vt 1.000000 0.625000
vt 0.687500 0.625000
vt 0.687500 0.562500
vt 1.000000 0.625000
vt 1.000000 0.687500
vt 0.687500 0.687500
vt 0.687500 0.625000
vt 1.000000 0.687500
vt 1.000000 0.750000
vt 0.687500 0.750000
vt 0.687500 0.687500
vt 1.000000 0.750000
vt 1.000000 0.812500
vt 0.687500 0.812500
vt 0.687500 0.750000
vt 1.000000 0.812500
vt 1.000000 0.875000
vt 0.687500 0.812500
vt 0.687500 1.000000
vt 0.250000 0.562500
vt 0.375000 0.625000
vt 0.375000 0.562500
vt 0.187500 0.625000
vt 0.375000 0.687500
vt 0.125000 0.687500
vt 0.312500 0.750000
vt 0.062500 0.750000
vt 0.250000 0.812500
vt 0.000000 0.812500
vt 0.187500 0.875000
vt 0.125000 0.937500
vt 0.000000 1.000000
vt 0.062500 1.000000
vt 0.375000 0.562500
vt 0.375000 0.687500
vt 0.250000 0.687500
vt 0.250000 0.562500
vt 0.250000 0.625000
vt 0.250000 0.812500
vt 0.187500 0.812500
vt 0.187500 0.625000
vt 0.187500 0.687500
vt 0.187500 0.875000
vt 0.125000 0.875000
vt 0.125000 0.687500
vt 0.312500 0.687500
vt 0.312500 0.750000
vt 0.250000 0.750000
vt 0.125000 0.750000
vt 0.125000 0.937500
vt 0.062500 0.937500
vt 0.062500 0.750000
vt 0.062500 0.812500
vt 0.000000 0.812500
vt 0.687500 0.187500
vt 0.687500 0.250000
vt 1.000000 0.250000
vt 1.000000 0.187500
vt 0.687500 0.125000
vt 0.687500 0.187500
vt 1.000000 0.187500
vt 1.000000 0.125000
vt 0.687500 0.062500
vt 0.687500 0.125000
vt 1.000000 0.125000
vt 1.000000 0.062500
vt 0.687500 0.000000
vt 0.687500 0.062500
vt 1.000000 0.062500
vt 1.000000 0.000000
vt 1.000000 0.312500
vt 1.000000 0.375000
vt 0.687500 0.375000
vt 0.687500 0.312500
vt 1.000000 0.250000
vt 1.000000 0.312500
vt 0.687500 0.312500
vt 0.687500 0.250000
vt 1.000000 0.187500
vt 1.000000 0.250000
vt 0.687500 0.250000
vt 0.687500 0.187500
vt 1.000000 0.125000
vt 1.000000 0.187500
vt 0.687500 0.187500
vt 0.687500 0.125000
vt 0.875000 0.062500
vt 0.687500 0.125000
vt 0.687500 0.062500
vt 0.875000 0.062500
vt 0.687500 0.062500
vt 0.687500 0.000000
vt 0.812500 0.875000
vt 0.812500 1.000000
vt 0.937500 1.000000
vt 0.937500 0.875000
vt 0.750000 0.875000
vt 0.750000 1.000000
vt 1.000000 1.000000
vt 1.000000 0.875000
vt 1.000000 0.875000
vt 1.000000 1.000000
vt 0.750000 1.000000
vt 0.750000 0.875000
vt 0.812500 0.750000
vt 0.812500 1.000000
vt 0.937500 1.000000
vt 0.937500 0.750000
vt 0.937500 0.750000
vt 0.812500 0.750000
vt 1.000000 0.187500
vt 1.000000 0.562500
vt 0.687500 0.562500
vt 0.687500 0.187500
vt 0.000000 0.187500
vt 0.000000 0.562500
vt 0.000000 0.562500
vt 0.000000 0.187500
vt 0.687500 0.000000
vt 1.000000 0.062500
vt 1.000000 0.000000
vt 0.937500 0.187500
vt 1.000000 0.000000
vt 1.000000 0.062500
vt 0.687500 0.000000
vt 0.937500 0.187500
vt 0.687500 0.875000
vt 0.687500 1.000000
vt 0.687500 1.000000
vt 0.687500 0.875000
vt 0.812500 0.687500
vt 0.937500 0.687500
vt 0.937500 0.687500
vt 0.812500 0.687500
vn 0.0000 1.0000 0.0000
vn 0.0000 -1.0000 0.0000
vn -1.0000 0.0000 0.0000
vn 1.0000 0.0000 0.0000
vn 0.0000 0.0000 -1.0000
vn 0.0000 -0.0000 1.0000
g node_0_0_0_node_0_0_0_default:wood
usemtl default:wood
s 1
f 1/1/1 2/2/1 3/3/1 4/4/1
f 5/5/1 6/6/1 7/7/1 3/3/1
f 2/2/1 8/8/1 9/9/1 10/10/1
f 15/11/1 16/12/1 17/13/1 7/7/1
f 9/9/1 18/14/1 19/15/1 6/6/1
f 19/15/1 56/16/1 16/12/1 57/17/1
f 58/18/1 59/19/1 60/20/1 18/14/1
f 80/21/1 60/20/1 81/22/1 82/23/1
f 95/24/1 96/25/1 59/19/1 97/26/1
f 102/27/1 103/28/1 104/29/1 17/13/1
f 113/30/2 114/31/2 115/32/2 116/33/2
f 117/34/2 118/35/2 119/36/2 120/37/2
f 121/38/2 122/39/2 123/40/2 124/41/2
f 125/42/2 126/43/2 127/44/2 128/45/2
f 129/46/2 130/47/2 131/48/2 132/49/2
f 157/50/2 161/51/2 162/52/2 163/53/2
f 165/54/2 166/55/2 167/56/2 168/57/2
f 116/58/3 115/59/3 128/60/3 121/61/3
f 120/37/3 119/36/3 8/62/3 1/63/3
f 132/64/3 169/65/3 96/66/3 8/62/3
f 168/57/3 167/56/3 169/65/3 131/67/3
f 112/68/3 111/69/3 122/70/3 127/71/3
f 4/72/4 7/73/4 114/74/4 113/75/4
f 124/76/4 129/77/4 118/78/4 117/79/4
f 7/73/4 104/80/4 187/81/4 125/82/4
f 126/83/4 187/81/4 161/84/4 157/85/4
f 130/86/4 123/87/4 166/88/4 165/89/4
f 116/33/5 197/90/5 4/91/5 113/30/5
f 120/37/5 1/92/5 198/93/5 117/34/5
f 124/94/5 198/93/5 197/90/5 121/95/5
f 168/96/5 131/97/5 130/98/5 165/99/5
f 204/100/5 127/101/5 126/102/5 100/103/5
f 114/104/6 125/105/6 128/106/6 115/107/6
f 118/108/6 129/109/6 132/110/6 119/111/6
f 161/112/6 104/113/6 209/114/6 162/115/6
f 166/116/6 210/117/6 96/118/6 167/119/6
f 122/120/6 209/114/6 210/117/6 123/121/6
g node_0_0_0_node_0_0_0_default:silver_sandstone_block
usemtl default:silver_sandstone_block
f 11/122/1 12/123/1 13/124/1 14/125/1
f 13/124/1 20/126/1 21/127/1 22/128/1
f 23/129/1 24/130/1 25/131/1 12/123/1
f 25/131/1 61/132/1 62/133/1 20/126/1
f 10/134/3 9/135/3 12/123/3 11/122/3
f 6/136/3 19/137/3 20/138/3 13/139/3
f 18/140/3 80/141/3 61/132/3 25/131/3
f 14/142/4 13/139/4 6/136/4 5/143/4
f 22/144/4 21/145/4 57/146/4 15/147/4
f 12/123/4 25/131/4 18/140/4 9/135/4
f 20/138/4 62/148/4 82/149/4 19/137/4
f 10/150/5 11/151/5 14/152/5 5/153/5
f 6/154/5 13/155/5 22/156/5 15/157/5
f 199/158/5 23/159/5 12/160/5 9/161/5
f 18/162/5 25/163/5 20/164/5 19/165/5
f 6/154/6 13/155/6 12/160/6 9/161/6
f 57/166/6 21/167/6 20/164/6 19/165/6
f 18/162/6 25/163/6 24/168/6 58/169/6
f 82/23/6 62/170/6 61/171/6 80/21/6
g node_0_0_0_node_0_0_0_wool:red
usemtl wool:red
f 26/172/1 27/173/1 28/174/1 23/129/1
f 29/175/1 30/176/1 31/177/1 32/178/1
f 33/179/1 34/180/1 35/181/1 28/174/1
f 36/182/1 37/183/1 38/184/1 39/185/1
f 27/173/1 40/186/1 41/187/1 42/188/1
f 51/189/1 52/190/1 53/191/1 31/177/1
f 54/192/1 63/193/1 52/190/1 55/194/1
f 87/195/1 38/184/1 34/180/1 88/196/1
f 89/197/1 41/187/1 37/183/1 90/198/1
f 8/62/3 95/199/3 40/200/3 26/201/3
f 175/202/3 176/203/3 30/204/3 29/205/3
f 177/206/3 178/207/3 63/208/3 54/209/3
f 32/210/4 53/211/4 190/212/4 188/213/4
f 24/214/4 35/215/4 97/26/4 58/18/4
f 8/216/5 26/217/5 23/159/5 199/158/5
f 175/218/5 29/219/5 32/220/5 188/221/5
f 97/222/6 35/223/6 40/224/6 95/225/6
g node_0_0_0_node_0_0_0_stairs:slab_sandstone
usemtl stairs:slab_sandstone
f 43/226/1 44/227/1 45/228/1 46/229/1
f 47/230/1 48/231/1 49/232/1 50/233/1
f 39/234/3 87/235/3 44/236/3 43/237/3
f 42/238/3 89/239/3 48/240/3 47/241/3
f 46/242/4 45/243/4 88/244/4 33/245/4
f 50/246/4 49/247/4 90/248/4 36/249/4
f 39/250/5 43/251/5 46/252/5 33/253/5
f 42/254/5 47/255/5 50/256/5 36/257/5
f 88/196/6 45/258/6 44/259/6 87/195/6
f 90/198/6 49/260/6 48/261/6 89/197/6
g node_0_0_0_node_0_0_0_wool:white
usemtl wool:white
f 30/176/1 54/192/1 55/194/1 51/189/1
f 66/262/1 67/263/1 68/264/1 65/265/1
f 159/266/2 158/267/2 160/268/2 155/269/2
f 171/270/3 170/271/3 172/272/3 173/273/3
f 176/203/3 177/206/3 54/209/3 30/204/3
f 139/274/3 180/275/3 76/276/3 181/277/3
f 143/278/3 182/279/3 83/280/3 180/275/3
f 147/281/3 183/282/3 91/283/3 182/279/3
f 151/284/3 184/285/3 98/286/3 183/282/3
f 155/287/3 160/288/3 109/289/3 184/285/3
f 65/290/4 68/291/4 192/292/4 191/293/4
f 171/294/5 173/295/5 203/296/5 201/297/5
f 207/298/6 208/299/6 172/300/6 170/301/6
g node_0_0_0_node_0_0_0_wool:orange
usemtl wool:orange
f 63/193/1 64/302/1 65/265/1 53/191/1
f 64/302/1 69/303/1 70/304/1 66/262/1
f 67/263/1 70/304/1 71/305/1 68/264/1
f 178/207/3 174/306/3 69/307/3 63/208/3
f 53/211/4 65/290/4 191/293/4 190/212/4
f 68/291/4 71/308/4 189/309/4 192/292/4
f 189/310/6 137/311/6 140/312/6 174/313/6
f 75/314/6 71/305/6 69/303/6 72/315/6
g node_0_0_0_node_0_0_0_wool:green
usemtl wool:green
f 72/316/1 73/317/1 74/318/1 75/319/1
f 76/320/1 77/321/1 78/322/1 79/323/1
f 83/324/1 84/325/1 85/326/1 86/327/1
f 91/328/1 92/329/1 93/330/1 94/331/1
f 98/332/1 99/333/1 100/334/1 101/335/1
f 109/336/1 110/337/1 111/338/1 112/339/1
f 137/340/2 138/341/2 139/342/2 140/343/2
f 141/344/2 142/345/2 143/346/2 144/347/2
f 145/348/2 146/349/2 147/350/2 148/351/2
f 149/352/2 150/353/2 151/354/2 152/355/2
f 153/356/2 154/357/2 155/269/2 156/358/2
f 154/357/2 157/50/2 158/267/2 159/266/2
f 163/53/2 162/52/2 164/359/2 160/268/2
f 140/360/3 139/274/3 179/361/3 72/362/3
f 144/363/3 143/278/3 180/275/3 139/274/3
f 181/277/3 76/276/3 73/364/3 179/361/3
f 148/365/3 147/281/3 182/279/3 143/278/3
f 180/275/3 83/280/3 77/366/3 76/276/3
f 152/367/3 151/284/3 183/282/3 147/281/3
f 182/279/3 91/283/3 84/368/3 83/280/3
f 156/369/3 155/287/3 184/285/3 151/284/3
f 183/282/3 98/286/3 92/370/3 91/283/3
f 184/285/3 109/289/3 99/371/3 98/286/3
f 160/288/3 164/372/3 110/373/3 109/289/3
f 75/374/4 74/375/4 193/376/4 137/377/4
f 138/378/4 85/379/4 94/380/4 141/381/4
f 142/382/4 93/383/4 101/384/4 145/385/4
f 79/386/4 78/387/4 86/388/4 193/376/4
f 146/389/4 100/390/4 194/391/4 149/392/4
f 150/393/4 194/391/4 157/85/4 153/394/4
f 144/395/5 139/396/5 138/397/5 141/398/5
f 148/399/5 143/400/5 142/401/5 145/402/5
f 152/403/5 147/404/5 146/405/5 149/406/5
f 156/407/5 151/408/5 150/409/5 153/410/5
f 79/411/6 74/412/6 73/413/6 76/414/6
f 86/415/6 78/416/6 77/417/6 83/418/6
f 94/419/6 85/420/6 84/421/6 91/422/6
f 101/423/6 93/424/6 92/425/6 98/426/6
f 112/427/6 204/100/6 99/428/6 109/429/6
f 162/115/6 111/430/6 110/431/6 164/432/6
g node_0_0_0_node_0_0_0_wool:yellow
usemtl wool:yellow
f 105/433/1 106/434/1 107/435/1 108/436/1
f 186/437/3 185/438/3 106/439/3 105/440/3
f 108/441/4 107/442/4 196/443/4 195/444/4
f 186/445/5 105/446/5 108/447/5 195/448/5
f 196/449/6 107/435/6 106/434/6 185/450/6
g node_0_0_0_node_0_0_0_wool:blue
usemtl wool:blue
f 133/451/2 134/452/2 135/453/2 136/454/2
f 136/455/3 135/456/3 170/271/3 171/270/3
f 173/273/3 172/272/3 174/306/3 175/202/3
f 188/213/4 189/309/4 134/457/4 133/458/4
f 136/459/5 171/294/5 200/460/5 133/461/5
f 201/297/5 202/462/5 188/221/5 200/460/5
f 173/295/5 175/218/5 202/462/5 203/296/5
f 134/463/6 205/464/6 170/301/6 135/465/6
f 205/464/6 189/310/6 206/466/6 207/298/6
f 208/299/6 206/466/6 174/313/6 172/300/6
g node_0_0_0_node_0_0_0_wool:dark_green
usemtl wool:dark_green
f 56/467/3 81/468/3 185/438/3 186/437/3
f 195/444/4 196/443/4 103/469/4 102/470/4
f 56/471/5 186/445/5 195/448/5 102/472/5
f 103/473/6 196/449/6 185/450/6 81/474/6
