# Blender v3.0.1 OBJ File: ''
# www.blender.org
mtllib writing_bookbinding_table.mtl
o node_0_0_0
v -0.500000 0.187500 -0.500000
v -0.500000 0.187500 -0.437500
v 0.500000 0.187500 -0.437500
v 0.500000 0.187500 -0.500000
v 0.312500 0.187500 -0.437500
v 0.312500 0.187500 -0.375000
v 0.500000 0.187500 -0.375000
v -0.500000 0.187500 -0.375000
v 0.250000 0.187500 -0.375000
v 0.250000 0.187500 -0.437500
v 0.375000 0.187500 -0.375000
v 0.375000 0.187500 0.375000
v 0.500000 0.187500 0.375000
v 0.250000 0.187500 -0.250000
v 0.312500 0.187500 -0.250000
v 0.312500 0.187500 0.375000
v 0.375000 0.187500 -0.250000
v 0.187500 0.187500 -0.250000
v 0.187500 0.187500 0.500000
v 0.250000 0.187500 0.500000
v 0.250000 0.187500 0.187500
v 0.312500 0.187500 0.500000
v 0.312500 0.187500 0.187500
v -0.500000 0.187500 0.312500
v -0.500000 0.187500 0.500000
v 0.187500 0.187500 0.312500
v 0.437500 0.187500 0.375000
v 0.437500 0.187500 0.500000
v 0.500000 0.187500 0.500000
v 0.500000 -0.500000 -0.500000
v 0.500000 -0.500000 -0.375000
v 0.375000 -0.500000 -0.375000
v 0.375000 -0.500000 -0.500000
v -0.437500 -0.500000 -0.500000
v -0.437500 -0.500000 -0.375000
v -0.500000 -0.500000 -0.375000
v -0.500000 -0.500000 -0.500000
v 0.375000 0.125000 -0.500000
v 0.375000 0.125000 0.500000
v -0.437500 0.125000 0.500000
v -0.437500 0.125000 -0.500000
v 0.500000 0.125000 -0.375000
v 0.500000 0.125000 0.437500
v 0.375000 0.125000 0.437500
v 0.375000 0.125000 -0.375000
v -0.437500 0.125000 -0.375000
v -0.437500 0.125000 0.437500
v -0.500000 0.125000 0.437500
v -0.500000 0.125000 -0.375000
v 0.500000 -0.500000 0.437500
v 0.500000 -0.500000 0.500000
v 0.375000 -0.500000 0.500000
v 0.375000 -0.500000 0.437500
v -0.437500 -0.500000 0.437500
v -0.437500 -0.500000 0.500000
v -0.500000 -0.500000 0.500000
v -0.500000 -0.500000 0.437500
v -0.500000 0.125000 0.500000
v 0.375000 -0.437500 0.437500
v 0.375000 -0.437500 0.500000
v 0.500000 0.125000 0.500000
v 0.375000 0.187500 -0.500000
v -0.437500 0.187500 -0.500000
v 0.375000 -0.375000 0.437500
v 0.500000 -0.375000 0.437500
v 0.375000 0.187500 0.500000
v -0.437500 0.187500 0.500000
v 0.250000 0.250000 -0.437500
v 0.250000 0.250000 -0.375000
v 0.312500 0.250000 -0.375000
v 0.312500 0.250000 -0.437500
v 0.312500 0.250000 -0.250000
v 0.375000 0.250000 -0.250000
v 0.375000 0.250000 -0.375000
v 0.187500 0.250000 -0.375000
v 0.187500 0.250000 -0.250000
v 0.250000 0.250000 -0.250000
v 0.250000 0.250000 0.187500
v 0.312500 0.250000 0.187500
v 0.187500 0.187500 -0.375000
v -0.500000 0.250000 -0.375000
v -0.500000 0.250000 -0.312500
v 0.187500 0.250000 -0.312500
v 0.187500 0.062500 -0.312500
v 0.187500 0.062500 -0.250000
v 0.500000 0.062500 -0.250000
v 0.500000 0.062500 -0.312500
v 0.125000 0.250000 -0.312500
v 0.125000 0.250000 0.312500
v 0.187500 0.250000 0.312500
v -0.187500 0.250000 -0.312500
v -0.187500 0.250000 0.312500
v -0.125000 0.250000 0.312500
v -0.125000 0.250000 -0.312500
v -0.500000 0.250000 0.312500
v -0.437500 0.250000 0.312500
v -0.437500 0.250000 -0.312500
v 0.437500 0.062500 -0.250000
v 0.437500 0.062500 -0.125000
v 0.500000 0.062500 -0.125000
v 0.187500 0.062500 -0.187500
v 0.187500 0.062500 -0.125000
v 0.437500 0.062500 -0.187500
v -0.125000 0.250000 0.250000
v 0.125000 0.250000 0.250000
v -0.437500 0.250000 0.250000
v -0.187500 0.250000 0.250000
v 0.187500 -0.312500 -0.312500
v 0.187500 -0.312500 -0.250000
v 0.187500 -0.312500 -0.187500
v 0.187500 -0.312500 -0.125000
v 0.500000 -0.312500 -0.125000
v 0.500000 -0.312500 -0.312500
v -0.125000 0.312500 -0.312500
v -0.125000 0.312500 0.250000
v 0.125000 0.312500 0.250000
v 0.125000 0.312500 -0.312500
v -0.437500 0.312500 -0.312500
v -0.437500 0.312500 0.250000
v -0.187500 0.312500 0.250000
v -0.187500 0.312500 -0.312500
v 0.250000 0.062500 -0.062500
v 0.250000 0.062500 0.000000
v 0.500000 0.062500 0.000000
v 0.500000 0.062500 -0.062500
v 0.437500 -0.500000 0.375000
v 0.437500 -0.500000 0.437500
v 0.187500 -0.500000 0.437500
v 0.187500 -0.500000 0.375000
v 0.187500 -0.437500 -0.312500
v 0.187500 -0.437500 0.062500
v 0.187500 -0.375000 0.062500
v 0.187500 -0.375000 -0.312500
v 0.187500 -0.250000 0.125000
v 0.187500 -0.250000 0.187500
v 0.187500 -0.187500 0.187500
v 0.187500 -0.187500 0.125000
v 0.187500 -0.312500 0.187500
v 0.187500 -0.312500 0.250000
v 0.187500 -0.250000 0.250000
v 0.187500 -0.375000 0.250000
v 0.187500 -0.375000 0.312500
v 0.187500 -0.312500 0.312500
v 0.187500 -0.437500 0.312500
v 0.187500 -0.437500 0.375000
v 0.187500 -0.375000 0.375000
v 0.187500 -0.437500 0.437500
v 0.500000 -0.312500 -0.000000
v 0.500000 -0.312500 -0.062500
v 0.437500 -0.375000 -0.312500
v 0.437500 -0.437500 -0.312500
v 0.437500 -0.437500 0.062500
v 0.437500 -0.375000 0.062500
v 0.187500 0.062500 -0.062500
v 0.187500 0.062500 0.062500
v 0.250000 0.062500 0.062500
v 0.500000 0.062500 0.062500
v 0.187500 -0.312500 0.062500
v 0.500000 -0.312500 0.062500
v 0.500000 -0.250000 0.062500
v 0.187500 -0.250000 0.062500
v 0.500000 -0.125000 0.062500
v 0.187500 -0.125000 0.062500
v 0.187500 -0.125000 0.187500
v 0.500000 -0.125000 0.187500
v 0.187500 -0.187500 0.250000
v 0.500000 -0.187500 0.250000
v 0.500000 -0.187500 0.187500
v 0.187500 -0.250000 0.312500
v 0.500000 -0.250000 0.312500
v 0.500000 -0.250000 0.250000
v 0.187500 -0.312500 0.375000
v 0.500000 -0.312500 0.375000
v 0.500000 -0.312500 0.312500
v 0.187500 -0.375000 0.437500
v 0.500000 -0.375000 0.375000
v 0.187500 -0.437500 0.500000
v 0.500000 -0.250000 0.125000
v 0.500000 -0.312500 0.125000
v 0.500000 -0.312500 0.187500
v 0.187500 -0.312500 0.125000
v 0.500000 -0.375000 0.187500
v 0.500000 -0.375000 0.250000
v 0.187500 -0.375000 0.187500
v 0.500000 -0.437500 0.250000
v 0.500000 -0.437500 0.312500
v 0.187500 -0.437500 0.250000
v 0.500000 -0.500000 0.312500
v 0.500000 -0.500000 0.375000
v 0.187500 -0.500000 0.312500
v 0.187500 -0.500000 0.500000
v 0.187500 -0.125000 0.125000
v 0.500000 -0.250000 0.187500
v 0.500000 -0.437500 0.437500
v 0.312500 0.500000 0.375000
v 0.312500 0.500000 0.500000
v 0.437500 0.500000 0.500000
v 0.437500 0.500000 0.375000
v 0.312500 0.250000 0.375000
v 0.312500 0.250000 0.500000
v 0.437500 0.250000 0.500000
v 0.437500 0.250000 0.375000
v 0.500000 -0.500000 -0.312500
v 0.500000 -0.500000 0.062500
v 0.187500 -0.500000 0.062500
v 0.187500 -0.500000 -0.312500
v 0.500000 -0.437500 -0.312500
v 0.437500 -0.312500 -0.312500
v 0.500000 -0.437500 0.062500
v 0.437500 -0.312500 0.062500
vt 0.000000 0.000000
vt 0.000000 0.062500
vt 1.000000 0.062500
vt 1.000000 0.000000
vt 0.812500 0.062500
vt 0.812500 0.125000
vt 1.000000 0.125000
vt 0.000000 0.125000
vt 0.750000 0.125000
vt 0.750000 0.062500
vt 0.875000 0.125000
vt 0.875000 0.875000
vt 1.000000 0.875000
vt 0.750000 0.250000
vt 0.812500 0.250000
vt 0.812500 0.875000
vt 0.875000 0.250000
vt 0.687500 0.250000
vt 0.687500 1.000000
vt 0.750000 1.000000
vt 0.750000 0.687500
vt 0.812500 1.000000
vt 0.812500 0.687500
vt 0.000000 0.812500
vt 0.000000 1.000000
vt 0.687500 0.812500
vt 0.937500 0.875000
vt 0.937500 1.000000
vt 1.000000 1.000000
vt 1.000000 0.000000
vt 1.000000 0.125000
vt 0.875000 0.125000
vt 0.875000 0.000000
vt 0.062500 0.000000
vt 0.062500 0.125000
vt 0.000000 0.125000
vt 0.000000 0.000000
vt 0.875000 0.000000
vt 0.875000 1.000000
vt 0.062500 1.000000
vt 0.062500 0.000000
vt 1.000000 0.125000
vt 1.000000 0.937500
vt 0.875000 0.937500
vt 0.875000 0.125000
vt 0.062500 0.125000
vt 0.062500 0.937500
vt 0.000000 0.937500
vt 0.000000 0.125000
vt 1.000000 0.937500
vt 1.000000 1.000000
vt 0.875000 1.000000
vt 0.875000 0.937500
vt 0.062500 0.937500
vt 0.062500 1.000000
vt 0.000000 1.000000
vt 0.000000 0.937500
vt 0.000000 0.000000
vt 0.000000 0.125000
vt 0.625000 0.125000
vt 0.625000 0.000000
vt 0.687500 0.125000
vt 0.687500 0.000000
vt 0.625000 0.125000
vt 0.625000 1.000000
vt 0.687500 1.000000
vt 0.625000 0.937500
vt 0.062500 0.937500
vt 0.062500 1.000000
vt 0.625000 1.000000
vt 0.625000 0.937500
vt 0.687500 0.000000
vt 0.687500 0.125000
vt 0.000000 0.125000
vt 0.000000 0.000000
vt 0.625000 0.000000
vt 0.625000 0.125000
vt 0.000000 0.125000
vt 0.000000 0.000000
vt 0.687500 1.000000
vt 0.625000 1.000000
vt 0.625000 0.125000
vt 0.625000 0.937500
vt 0.000000 1.000000
vt 0.000000 0.937500
vt 0.625000 0.937500
vt 0.625000 1.000000
vt 0.000000 1.000000
vt 0.000000 0.937500
vt 0.875000 0.687500
vt 1.000000 0.687500
vt 0.000000 0.687500
vt 0.062500 0.687500
vt 0.062500 0.625000
vt 0.875000 0.625000
vt 0.000000 0.000000
vt 0.000000 0.625000
vt 0.062500 0.625000
vt 0.062500 0.000000
vt 0.875000 0.125000
vt 0.875000 0.625000
vt 1.000000 0.625000
vt 1.000000 0.125000
vt 1.000000 0.000000
vt 1.000000 0.625000
vt 0.875000 0.625000
vt 0.875000 0.000000
vt 0.062500 0.000000
vt 0.062500 0.625000
vt 0.000000 0.625000
vt 0.000000 0.000000
vt 1.000000 0.000000
vt 1.000000 0.687500
vt 0.875000 0.687500
vt 0.875000 0.000000
vt 0.062500 0.000000
vt 0.062500 0.687500
vt 0.000000 0.687500
vt 0.000000 0.000000
vt 0.875000 0.625000
vt 0.062500 0.625000
vt 0.750000 0.062500
vt 0.750000 0.125000
vt 0.812500 0.125000
vt 0.812500 0.062500
vt 0.812500 0.250000
vt 0.875000 0.250000
vt 0.875000 0.125000
vt 0.687500 0.125000
vt 0.687500 0.250000
vt 0.750000 0.250000
vt 0.750000 0.687500
vt 0.812500 0.687500
vt 0.687500 0.062500
vt 0.687500 0.125000
vt 0.687500 0.125000
vt 0.687500 0.250000
vt 0.750000 0.250000
vt 0.750000 0.125000
vt 0.687500 0.250000
vt 0.687500 0.687500
vt 0.750000 0.062500
vt 0.687500 0.062500
vt 0.750000 0.125000
vt 0.750000 0.250000
vt 0.687500 0.250000
vt 0.687500 0.125000
vt 0.750000 0.687500
vt 0.687500 0.687500
vt 0.750000 0.687500
vt 0.750000 0.750000
vt 0.812500 0.750000
vt 0.812500 0.687500
vt 0.812500 0.687500
vt 0.812500 0.750000
vt 0.875000 0.750000
vt 0.875000 0.687500
vt 0.687500 0.687500
vt 0.687500 0.750000
vt 0.750000 0.750000
vt 0.750000 0.687500
vt 0.750000 0.687500
vt 0.750000 0.750000
vt 0.812500 0.750000
vt 0.812500 0.687500
vt 0.875000 0.687500
vt 0.875000 0.750000
vt 0.687500 0.750000
vt 0.687500 0.687500
vt 0.812500 0.750000
vt 0.750000 0.750000
vt 0.028577 0.013796
vt 0.028577 0.985014
vt 0.983087 0.985014
vt 0.983087 0.013796
vt 0.023155 0.014279
vt 0.023155 0.993784
vt 0.957428 0.993784
vt 0.957428 0.014279
vt 0.678637 0.187500
vt 0.678637 0.750000
vt 0.741137 0.750000
vt 0.741137 0.187500
vt 0.675154 0.189638
vt 0.675154 0.752138
vt 0.737654 0.752138
vt 0.737654 0.189638
vt 0.812500 0.187500
vt 0.812500 0.750000
vt 0.750000 0.750000
vt 0.750000 0.187500
vt 0.812500 0.187500
vt 0.812500 0.750000
vt 0.750000 0.750000
vt 0.750000 0.187500
vt 0.375000 0.629422
vt 0.375000 0.691922
vt 0.625000 0.691922
vt 0.625000 0.629422
vt 0.188669 0.625969
vt 0.188669 0.688469
vt 0.438669 0.688469
vt 0.438669 0.625969
vt 0.625000 0.750000
vt 0.625000 0.812500
vt 0.375000 0.812500
vt 0.375000 0.750000
vt 0.438669 0.752138
vt 0.438669 0.814638
vt 0.188669 0.814638
vt 0.188669 0.752138
vt 0.687500 0.250000
vt 0.687500 0.312500
vt 0.937500 0.312500
vt 0.937500 0.250000
vt 0.363657 0.061000
vt 0.363657 0.123500
vt 0.613657 0.123500
vt 0.613657 0.061000
vt 0.937500 0.875000
vt 0.937500 0.937500
vt 0.687500 0.937500
vt 0.687500 0.875000
vt 0.106794 0.490176
vt 0.106794 0.865176
vt 0.169294 0.865176
vt 0.169294 0.490176
vt 0.187500 0.250000
vt 0.187500 0.312500
vt 0.562500 0.312500
vt 0.562500 0.250000
vt 0.092510 0.819402
vt 0.092510 0.881902
vt 0.155010 0.881902
vt 0.155010 0.819402
vt 0.121059 0.731794
vt 0.121059 0.794294
vt 0.183559 0.794294
vt 0.183559 0.731794
vt 0.125000 0.750000
vt 0.125000 0.812500
vt 0.187500 0.812500
vt 0.187500 0.750000
vt 0.062500 0.812500
vt 0.062500 0.875000
vt 0.125000 0.875000
vt 0.228853 0.894686
vt 0.228853 0.957186
vt 0.291353 0.957186
vt 0.291353 0.894686
vt 0.564961 0.082951
vt 0.564961 0.157951
vt 0.189961 0.157951
vt 0.189961 0.082951
vt 0.687500 0.062500
vt 0.687500 0.125000
vt 0.937500 0.125000
vt 0.937500 0.062500
vt 0.937500 0.062500
vt 0.937500 0.125000
vt 0.687500 0.125000
vt 0.687500 0.062500
vt 0.000000 0.125000
vt 0.000000 0.187500
vt 0.687500 0.187500
vt 0.687500 0.187500
vt 1.000000 0.250000
vt 1.000000 0.187500
vt 0.625000 0.187500
vt 0.625000 0.812500
vt 0.687500 0.812500
vt 0.312500 0.187500
vt 0.312500 0.812500
vt 0.375000 0.812500
vt 0.375000 0.187500
vt 0.000000 0.812500
vt 0.062500 0.812500
vt 0.062500 0.187500
vt 0.937500 0.375000
vt 1.000000 0.375000
vt 0.687500 0.375000
vt 0.062500 0.750000
vt 0.312500 0.750000
vt 0.687500 0.812500
vt 0.750000 0.812500
vt 0.750000 0.125000
vt 0.187500 0.187500
vt 0.562500 0.187500
vt 0.187500 0.375000
vt 0.562500 0.375000
vt 0.562500 0.187500
vt 0.562500 0.375000
vt 0.187500 0.375000
vt 0.187500 0.187500
vt 0.750000 0.250000
vt 0.750000 0.812500
vt 0.000000 0.687500
vt 0.000000 0.750000
vt 0.687500 0.187500
vt 0.687500 0.562500
vt 1.000000 0.562500
vt 1.000000 0.187500
vt 0.687500 0.687500
vt 0.687500 0.750000
vt 0.000000 0.750000
vt 0.000000 0.687500
vt 0.192383 0.707667
vt 0.192383 0.832667
vt 0.317383 0.832667
vt 0.317383 0.707667
vt 0.142187 0.665833
vt 0.142187 0.790833
vt 0.392187 0.790833
vt 0.392187 0.665833
vt 0.281451 0.153991
vt 0.281451 0.278991
vt 0.031451 0.278991
vt 0.031451 0.153991
vt 0.175157 0.673716
vt 0.175157 0.923716
vt 0.300157 0.923716
vt 0.300157 0.673716
vt 0.275549 0.678637
vt 0.275549 0.928637
vt 0.150549 0.928637
vt 0.150549 0.678637
vt 0.485716 0.237196
vt 0.485716 0.299696
vt 0.798216 0.299696
vt 0.798216 0.237196
vt 0.687500 0.437500
vt 0.687500 0.562500
vt 0.750000 0.562500
vt 0.750000 0.437500
vt 0.678637 0.507382
vt 0.678637 0.569882
vt 0.928637 0.569882
vt 0.928637 0.507382
vt 0.398148 0.715924
vt 0.585644 0.714685
vt 0.583166 0.339693
vt 0.395670 0.340932
vt 0.562500 0.437500
vt 0.187500 0.437500
vt 0.587108 0.199784
vt 0.587108 0.262284
vt 0.212108 0.262284
vt 0.212108 0.199784
vt 0.748990 0.168815
vt 0.756555 0.230855
vt 0.446354 0.268685
vt 0.438788 0.206645
vt 0.901480 0.527420
vt 0.901657 0.714920
vt 0.589158 0.715217
vt 0.588980 0.527717
vt 0.687500 0.562500
vt 0.687500 0.687500
vt 1.000000 0.687500
vt 1.000000 0.562500
vt 0.687500 0.687500
vt 0.687500 0.750000
vt 1.000000 0.750000
vt 1.000000 0.687500
vt 0.687500 0.750000
vt 0.687500 0.812500
vt 1.000000 0.812500
vt 1.000000 0.750000
vt 0.687500 0.812500
vt 0.687500 0.875000
vt 1.000000 0.875000
vt 1.000000 0.812500
vt 0.687500 0.875000
vt 0.687500 0.937500
vt 1.000000 0.937500
vt 1.000000 0.875000
vt 0.687500 0.937500
vt 0.687500 1.000000
vt 0.875000 1.000000
vt 0.875000 0.937500
vt 1.000000 0.562500
vt 1.000000 0.625000
vt 0.687500 0.625000
vt 0.687500 0.562500
vt 1.000000 0.625000
vt 1.000000 0.687500
vt 0.687500 0.687500
vt 0.687500 0.625000
vt 1.000000 0.687500
vt 1.000000 0.750000
vt 0.687500 0.750000
vt 0.687500 0.687500
vt 1.000000 0.750000
vt 1.000000 0.812500
vt 0.687500 0.812500
vt 0.687500 0.750000
vt 1.000000 0.812500
vt 1.000000 0.875000
vt 0.687500 0.812500
vt 0.687500 1.000000
vt 0.045755 0.488677
vt 0.045755 0.551176
vt 0.170755 0.551176
vt 0.170755 0.488677
vt 0.076765 0.529029
vt 0.076765 0.591529
vt 0.139265 0.591529
vt 0.139265 0.529029
vt 0.066422 0.536412
vt 0.066422 0.598912
vt 0.128922 0.598912
vt 0.128922 0.536412
vt 0.125000 0.687500
vt 0.187500 0.687500
vt 0.065441 0.653049
vt 0.065441 0.715549
vt 0.127941 0.715549
vt 0.127941 0.653049
vt 0.062500 0.750000
vt 0.047235 0.745078
vt 0.047235 0.807578
vt 0.109735 0.807578
vt 0.109735 0.745078
vt 0.000000 0.812500
vt 0.000000 0.875000
vt 0.187500 0.875000
vt 0.062500 0.937500
vt 0.125000 0.937500
vt 0.000000 0.937500
vt 0.000000 1.000000
vt 0.062500 1.000000
vt 0.153530 0.774127
vt 0.153530 0.899127
vt 0.028530 0.899127
vt 0.028530 0.774127
vt 0.097431 0.578245
vt 0.097431 0.765745
vt 0.034931 0.765745
vt 0.034931 0.578245
vt 0.187500 0.687500
vt 0.187500 0.875000
vt 0.125000 0.875000
vt 0.125000 0.687500
vt 0.164853 0.741637
vt 0.164853 0.804137
vt 0.102353 0.804137
vt 0.102353 0.741637
vt 0.125000 0.750000
vt 0.125000 0.937500
vt 0.062500 0.937500
vt 0.062500 0.750000
vt 0.062500 0.812500
vt 0.000000 0.812500
vt 0.687500 0.187500
vt 0.687500 0.250000
vt 1.000000 0.250000
vt 1.000000 0.187500
vt 0.687500 0.125000
vt 0.687500 0.187500
vt 1.000000 0.187500
vt 1.000000 0.125000
vt 0.687500 0.062500
vt 0.687500 0.125000
vt 1.000000 0.125000
vt 1.000000 0.062500
vt 0.687500 0.000000
vt 0.687500 0.062500
vt 1.000000 0.062500
vt 1.000000 0.000000
vt 1.000000 0.312500
vt 1.000000 0.375000
vt 0.687500 0.375000
vt 0.687500 0.312500
vt 1.000000 0.250000
vt 1.000000 0.312500
vt 0.687500 0.312500
vt 0.687500 0.250000
vt 1.000000 0.187500
vt 1.000000 0.250000
vt 0.687500 0.250000
vt 0.687500 0.187500
vt 1.000000 0.125000
vt 1.000000 0.187500
vt 0.687500 0.187500
vt 0.687500 0.125000
vt 0.875000 0.062500
vt 0.687500 0.125000
vt 0.687500 0.062500
vt 0.875000 0.062500
vt 0.687500 0.062500
vt 0.687500 0.000000
vt 0.135151 0.854387
vt 0.010232 0.849879
vt 0.007978 0.912338
vt 0.132896 0.916847
vt 0.010093 0.850134
vt 0.135030 0.854123
vt 0.133035 0.916591
vt 0.008099 0.912602
vt 0.015206 0.862216
vt 0.015206 0.924716
vt 0.140206 0.924716
vt 0.140206 0.862216
vt 0.152510 0.916353
vt 0.152510 0.978853
vt 0.027510 0.978853
vt 0.027510 0.916353
vt 1.000000 0.187500
vt 1.000000 0.562500
vt 0.687500 0.562500
vt 0.687500 0.187500
vt 0.000000 0.187500
vt 0.000000 0.562500
vt 0.062500 0.562500
vt 0.062500 0.187500
vt 0.125000 0.187500
vt 0.125000 0.562500
vt 0.187500 0.562500
vt 0.187500 0.562500
vt 0.000000 0.562500
vt 0.000000 0.187500
vt 0.687500 0.000000
vt 1.000000 0.062500
vt 1.000000 0.000000
vt 0.937500 0.187500
vt 1.000000 0.000000
vt 1.000000 0.062500
vt 0.687500 0.000000
vt 1.000000 0.187500
vt 0.937500 0.187500
vt 0.687500 0.187500
vn 0.0000 1.0000 0.0000
vn 0.0000 -1.0000 0.0000
vn -1.0000 0.0000 0.0000
vn 1.0000 0.0000 0.0000
vn 0.0000 0.0000 -1.0000
vn 0.0000 -0.0000 1.0000
g node_0_0_0_node_0_0_0_default:wood
usemtl default:wood
s 1
f 1/1/1 2/2/1 3/3/1 4/4/1
f 5/5/1 6/6/1 7/7/1 3/3/1
f 2/2/1 8/8/1 9/9/1 10/10/1
f 11/11/1 12/12/1 13/13/1 7/7/1
f 9/9/1 14/14/1 15/15/1 6/6/1
f 15/15/1 16/16/1 12/12/1 17/17/1
f 18/18/1 19/19/1 20/20/1 14/14/1
f 21/21/1 20/20/1 22/22/1 23/23/1
f 24/24/1 25/25/1 19/19/1 26/26/1
f 27/27/1 28/28/1 29/29/1 13/13/1
f 30/30/2 31/31/2 32/32/2 33/33/2
f 34/34/2 35/35/2 36/36/2 37/37/2
f 38/38/2 39/39/2 40/40/2 41/41/2
f 42/42/2 43/43/2 44/44/2 45/45/2
f 46/46/2 47/47/2 48/48/2 49/49/2
f 50/50/2 51/51/2 52/52/2 53/53/2
f 54/54/2 55/55/2 56/56/2 57/57/2
f 33/58/3 32/59/3 45/60/3 38/61/3
f 37/37/3 36/36/3 8/62/3 1/63/3
f 49/64/3 58/65/3 25/66/3 8/62/3
f 57/57/3 56/56/3 58/65/3 48/67/3
f 59/68/3 60/69/3 39/70/3 44/71/3
f 4/72/4 7/73/4 31/74/4 30/75/4
f 41/76/4 46/77/4 35/78/4 34/79/4
f 7/73/4 29/80/4 61/81/4 42/82/4
f 43/83/4 61/81/4 51/84/4 50/85/4
f 47/86/4 40/87/4 55/88/4 54/89/4
f 33/33/5 62/90/5 4/91/5 30/30/5
f 37/37/5 1/92/5 63/93/5 34/34/5
f 41/94/5 63/93/5 62/90/5 38/95/5
f 57/96/5 48/97/5 47/98/5 54/99/5
f 64/100/5 44/101/5 43/102/5 65/103/5
f 31/104/6 42/105/6 45/106/6 32/107/6
f 35/108/6 46/109/6 49/110/6 36/111/6
f 51/112/6 29/113/6 66/114/6 52/115/6
f 55/116/6 67/117/6 25/118/6 56/119/6
f 39/120/6 66/114/6 67/117/6 40/121/6
g node_0_0_0_node_0_0_0_default:silver_sandstone_block
usemtl default:silver_sandstone_block
f 68/122/1 69/123/1 70/124/1 71/125/1
f 70/124/1 72/126/1 73/127/1 74/128/1
f 75/129/1 76/130/1 77/131/1 69/123/1
f 77/131/1 78/132/1 79/133/1 72/126/1
f 10/134/3 9/135/3 69/123/3 68/122/3
f 6/136/3 15/137/3 72/138/3 70/139/3
f 14/140/3 21/141/3 78/132/3 77/131/3
f 71/142/4 70/139/4 6/136/4 5/143/4
f 74/144/4 73/145/4 17/146/4 11/147/4
f 69/123/4 77/131/4 14/140/4 9/135/4
f 72/138/4 79/148/4 23/149/4 15/137/4
f 10/150/5 68/151/5 71/152/5 5/153/5
f 6/154/5 70/155/5 74/156/5 11/157/5
f 80/158/5 75/159/5 69/160/5 9/161/5
f 14/162/5 77/163/5 72/164/5 15/165/5
f 6/154/6 70/155/6 69/160/6 9/161/6
f 17/166/6 73/167/6 72/164/6 15/165/6
f 14/162/6 77/163/6 76/168/6 18/169/6
f 23/23/6 79/170/6 78/171/6 21/21/6
f 114/172/1 115/173/1 116/174/1 117/175/1
f 118/176/1 119/177/1 120/178/1 121/179/1
f 94/180/3 104/181/3 115/182/3 114/183/3
f 97/184/3 106/185/3 119/186/3 118/187/3
f 117/188/4 116/189/4 105/190/4 88/191/4
f 121/192/4 120/193/4 107/194/4 91/195/4
f 94/196/5 114/197/5 117/198/5 88/199/5
f 97/200/5 118/201/5 121/202/5 91/203/5
f 105/204/6 116/205/6 115/206/6 104/207/6
f 107/208/6 120/209/6 119/210/6 106/211/6
f 85/212/1 101/213/1 103/214/1 98/215/1
f 122/216/1 123/217/1 124/218/1 125/219/1
f 126/220/2 127/221/2 128/222/2 129/223/2
f 130/224/3 131/225/3 132/226/3 133/227/3
f 109/228/3 110/229/3 101/230/3 85/231/3
f 134/232/3 135/233/3 136/234/3 137/235/3
f 138/236/3 139/237/3 140/238/3 135/239/3
f 141/240/3 142/241/3 143/242/3 139/243/3
f 144/244/3 145/245/3 146/246/3 142/241/3
f 129/247/3 128/248/3 147/249/3 145/250/3
f 125/251/4 124/252/4 148/253/4 149/254/4
f 130/255/5 133/256/5 150/257/5 151/258/5
f 152/259/6 153/260/6 132/261/6 131/262/6
g node_0_0_0_node_0_0_0_wool:red
usemtl wool:red
f 81/263/1 82/264/1 83/265/1 75/129/1
f 84/266/1 85/212/1 86/267/1 87/268/1
f 88/269/1 89/270/1 90/271/1 83/265/1
f 91/272/1 92/273/1 93/274/1 94/275/1
f 82/264/1 95/276/1 96/277/1 97/278/1
f 98/215/1 99/279/1 100/280/1 86/267/1
f 101/213/1 102/281/1 99/279/1 103/214/1
f 104/207/1 93/274/1 89/270/1 105/204/1
f 106/282/1 96/277/1 92/273/1 107/283/1
f 8/62/3 24/284/3 95/285/3 81/286/3
f 108/287/3 109/228/3 85/231/3 84/288/3
f 110/229/3 111/289/3 102/290/3 101/230/3
f 87/291/4 100/292/4 112/293/4 113/294/4
f 76/295/4 90/296/4 26/26/4 18/18/4
f 8/297/5 81/298/5 75/159/5 80/158/5
f 108/299/5 84/300/5 87/301/5 113/302/5
f 26/303/6 90/304/6 95/305/6 24/306/6
f 195/307/1 196/308/1 197/309/1 198/310/1
f 199/311/3 200/312/3 196/313/3 195/314/3
f 198/315/4 197/316/4 201/317/4 202/318/4
f 199/319/5 195/320/5 198/321/5 202/322/5
f 201/323/6 197/324/6 196/325/6 200/326/6
g node_0_0_0_node_0_0_0_wool:orange
usemtl wool:orange
f 102/327/1 154/328/1 125/329/1 100/330/1
f 154/331/1 155/332/1 156/333/1 122/334/1
f 123/335/1 156/336/1 157/337/1 124/338/1
f 111/339/3 158/340/3 155/341/3 102/342/3
f 100/292/4 125/343/4 149/344/4 112/293/4
f 124/345/4 157/346/4 159/347/4 148/348/4
f 159/349/6 160/350/6 161/351/6 158/352/6
f 162/353/6 157/354/6 155/355/6 163/356/6
g node_0_0_0_node_0_0_0_wool:green
usemtl wool:green
f 163/357/1 164/358/1 165/359/1 162/360/1
f 136/361/1 166/362/1 167/363/1 168/364/1
f 140/365/1 169/366/1 170/367/1 171/368/1
f 143/369/1 172/370/1 173/371/1 174/372/1
f 146/373/1 175/374/1 65/375/1 176/376/1
f 147/377/1 177/378/1 60/379/1 59/380/1
f 160/381/2 178/382/2 134/383/2 161/384/2
f 179/385/2 180/386/2 138/387/2 181/388/2
f 182/389/2 183/390/2 141/391/2 184/392/2
f 185/393/2 186/394/2 144/395/2 187/396/2
f 188/397/2 189/398/2 129/223/2 190/399/2
f 189/398/2 50/50/2 127/221/2 126/220/2
f 53/53/2 52/52/2 191/400/2 128/222/2
f 161/401/3 134/402/3 192/403/3 163/404/3
f 181/405/3 138/406/3 135/407/3 134/408/3
f 137/409/3 136/410/3 164/411/3 192/412/3
f 184/413/3 141/240/3 139/243/3 138/414/3
f 135/415/3 140/416/3 166/417/3 136/418/3
f 187/419/3 144/244/3 142/241/3 141/240/3
f 139/420/3 143/421/3 169/422/3 140/423/3
f 190/424/3 129/425/3 145/245/3 144/244/3
f 142/241/3 146/246/3 172/426/3 143/242/3
f 145/245/3 147/427/3 175/428/3 146/246/3
f 128/429/3 191/430/3 177/431/3 147/427/3
f 162/432/4 165/433/4 193/434/4 160/435/4
f 178/436/4 170/437/4 174/438/4 179/439/4
f 180/440/4 173/441/4 176/442/4 182/443/4
f 168/444/4 167/445/4 171/446/4 193/447/4
f 183/448/4 65/449/4 194/450/4 185/451/4
f 186/452/4 194/450/4 50/85/4 188/453/4
f 181/454/5 134/455/5 178/456/5 179/457/5
f 184/458/5 138/459/5 180/460/5 182/461/5
f 187/462/5 141/463/5 183/464/5 185/465/5
f 190/466/5 144/467/5 186/468/5 188/469/5
f 168/470/6 165/471/6 164/472/6 136/473/6
f 171/474/6 167/475/6 166/476/6 140/477/6
f 174/478/6 170/479/6 169/480/6 143/481/6
f 176/482/6 173/483/6 172/484/6 146/485/6
f 59/486/6 64/100/6 175/487/6 147/488/6
f 52/115/6 60/489/6 177/490/6 191/491/6
f 16/492/3 22/493/3 200/494/3 199/495/3
f 202/496/4 201/497/4 28/498/4 27/499/4
f 16/500/5 199/501/5 202/502/5 27/503/5
f 28/504/6 201/505/6 200/506/6 22/507/6
g node_0_0_0_node_0_0_0_wool:blue
usemtl wool:blue
f 203/508/2 204/509/2 205/510/2 206/511/2
f 206/512/3 205/513/3 131/514/3 130/515/3
f 133/516/3 132/517/3 158/518/3 108/287/3
f 113/294/4 159/519/4 204/520/4 203/521/4
f 206/522/5 130/255/5 207/523/5 203/524/5
f 151/258/5 208/525/5 113/302/5 207/523/5
f 133/256/5 108/299/5 208/525/5 150/257/5
f 204/526/6 209/527/6 131/262/6 205/528/6
f 209/527/6 159/529/6 210/530/6 152/259/6
f 153/260/6 210/530/6 158/531/6 132/261/6
